<svg xmlns="http://www.w3.org/2000/svg" width="25" height="25" fill="none" viewBox="0 0 25 25">
    <rect width="24" height="24" x=".5" y=".5" stroke="#fff" rx="3.5"/>
    <path fill="#fff" d="M18.348 14.548c1.207 1.17 1.458 1.742 1.499 1.812.498.867-.553.935-.553.935l-2.012.03s-.435.09-1.003-.32c-.754-.54-1.784-1.946-2.336-1.763-.562.185-.383 1.66-.383 1.66s.005.18-.122.325c-.14.152-.412.094-.412.094h-.58s-2.148.009-3.9-1.899C6.637 13.344 5.04 9.456 5.04 9.456s-.097-.246.007-.377c.12-.148.444-.146.444-.146h2.153s.201.029.346.141c.122.091.188.265.188.265s.26.724.722 1.558c.899 1.627 1.318 1.983 1.623 1.807.444-.255.31-2.299.31-2.299s.01-.743-.224-1.073c-.18-.258-.518-.333-.667-.354-.123-.014.077-.31.335-.44.387-.197 1.073-.212 1.88-.202.63.007.868-.002.868-.002.742.187.491.913.491 2.648 0 .557-.097 1.34.288 1.598.165.115.758.131 1.765-1.662.48-.85.858-1.65.858-1.65s.082-.18.202-.255c.127-.08.294-.08.294-.08l2.266.012s.682-.089.79.234c.116.338-.278.928-1.202 2.22-1.521 2.12-1.69 1.924-.43 3.15z"/>
</svg>
