<svg xmlns="http://www.w3.org/2000/svg" width="26" height="27" fill="none" viewBox="0 0 26 27">
    <path fill="#fff" fill-rule="evenodd" d="M11.232 6.844c-.119-.572-.35-.626-.558-.675-.17-.04-.367-.078-.563-.115-.194-.037-.528-.02-.858.247-.331.264-1.238.887-1.536 2.447-.298 1.559.47 3.27.574 3.508.108.237 1.365 3.902 4.11 5.744 2.281 1.53 2.827 1.417 3.374 1.468.55.048 1.888-.435 2.274-1.13.385-.692.506-1.326.46-1.473-.048-.147-.23-.263-.494-.479-.262-.215-1.561-1.256-1.812-1.414-.249-.156-.435-.246-.691.033-.257.278-.957.885-1.17 1.064-.212.179-.386.172-.652-.04-.262-.216-1.145-.73-2.062-2.026-.713-1.007-1.105-2.156-1.217-2.508-.111-.348.074-.492.252-.623.16-.115.367-.314.55-.471.18-.158.254-.279.393-.471.137-.193.124-.388.082-.56-.042-.174-.314-1.85-.456-2.526z" clip-rule="evenodd"/>
    <path fill="#fff" d="M3.39 20.995l.475.158.088-.264-.178-.214-.384.32zM1.89 25.5l-.474-.158-.28.838.862-.192-.108-.488zm5.646-1.255l.219-.45-.157-.076-.17.038.108.488zM25 13c0 6.627-5.373 12-12 12v1c7.18 0 13-5.82 13-13h-1zM13 1c6.627 0 12 5.373 12 12h1c0-7.18-5.82-13-13-13v1zM1 13C1 6.373 6.373 1 13 1V0C5.82 0 0 5.82 0 13h1zm2.775 7.675C2.042 18.595 1 15.919 1 13H0c0 3.162 1.13 6.061 3.006 8.315l.769-.64zm-1.412 4.983l1.502-4.505-.949-.316-1.501 4.505.948.316zm5.064-1.9L1.78 25.011l.217.976 5.647-1.255-.217-.976zM13 25c-1.882 0-3.662-.433-5.246-1.204l-.438.899C9.034 25.53 10.963 26 13 26v-1z"/>
</svg>
